<?xml version="1.0" standalone="no"?>
<!DOCTYPE svg PUBLIC "-//W3C//DTD SVG 20010904//EN"
 "http://www.w3.org/TR/2001/REC-SVG-20010904/DTD/svg10.dtd">
<svg version="1.0" xmlns="http://www.w3.org/2000/svg"
 width="512.000000pt" height="512.000000pt" viewBox="0 0 512.000000 512.000000"
 preserveAspectRatio="xMidYMid meet">
<metadata>
Created by potrace 1.14, written by Peter Selinger 2001-2017
</metadata>
<g transform="translate(0.000000,512.000000) scale(0.100000,-0.100000)"
fill="#000000" stroke="none">
<path d="M2521 5062 c-45 -36 -107 -87 -155 -125 -22 -18 -52 -44 -67 -58 -15
-15 -32 -28 -37 -30 -5 -2 -34 -26 -64 -54 -30 -27 -73 -65 -94 -84 -116 -101
-240 -217 -424 -401 -220 -220 -270 -274 -443 -477 -34 -40 -65 -73 -69 -73
-4 0 -8 -7 -8 -15 0 -9 -7 -18 -15 -21 -8 -4 -13 -10 -10 -14 3 -4 -2 -10 -10
-14 -8 -3 -15 -13 -15 -21 0 -9 -4 -14 -9 -10 -5 3 -12 -4 -16 -15 -3 -11 -11
-20 -16 -20 -5 0 -9 -4 -9 -10 0 -5 -10 -21 -22 -36 -30 -33 -183 -252 -200
-284 -7 -14 -21 -34 -31 -44 -9 -11 -17 -24 -17 -28 0 -5 -12 -27 -27 -51 -15
-23 -26 -45 -25 -49 1 -5 -2 -8 -8 -8 -5 0 -10 -7 -10 -15 0 -8 -5 -15 -11
-15 -5 0 -8 -4 -4 -9 3 -5 -1 -15 -8 -23 -15 -16 -41 -70 -39 -80 1 -5 -2 -8
-8 -8 -6 0 -9 -3 -8 -7 1 -5 -11 -35 -26 -68 -39 -82 -52 -113 -66 -160 -7
-22 -15 -44 -19 -50 -3 -5 -7 -14 -8 -20 -1 -5 -7 -26 -12 -45 -23 -82 -32
-117 -37 -155 -3 -22 -9 -56 -14 -76 -13 -63 -2 -289 19 -391 26 -127 85 -288
104 -288 4 0 6 -4 2 -9 -3 -5 0 -15 7 -23 7 -7 22 -29 32 -48 11 -19 25 -39
33 -43 7 -4 13 -12 13 -17 0 -29 159 -181 255 -244 113 -74 249 -133 350 -151
22 -4 44 -10 49 -13 8 -5 78 -11 176 -16 25 -1 53 2 63 6 11 6 17 5 17 -4 0
-9 3 -9 8 -2 4 6 23 11 42 11 19 0 49 3 65 7 53 12 230 69 235 75 3 4 23 15
45 26 22 11 42 23 43 28 2 4 8 7 14 7 15 0 125 81 183 135 27 26 51 43 53 37
6 -20 -38 -194 -68 -266 -18 -42 -56 -114 -85 -160 -59 -95 -62 -98 -127 -169
-27 -27 -48 -53 -48 -56 -1 -3 -39 -35 -85 -71 -46 -36 -94 -73 -106 -82 -12
-10 -30 -20 -40 -23 -11 -4 -19 -11 -19 -17 0 -6 -3 -9 -6 -5 -4 3 -13 -1 -21
-9 -8 -8 -19 -12 -24 -9 -5 4 -9 2 -9 -2 0 -9 -129 -72 -185 -91 -16 -6 -39
-14 -50 -18 -11 -4 -22 -8 -25 -9 -3 0 -14 -4 -25 -8 -11 -3 -31 -8 -45 -11
-14 -2 -46 -9 -71 -15 -26 -6 -78 -13 -115 -17 -97 -8 -156 -29 -196 -70 -45
-44 -64 -95 -62 -160 2 -57 20 -98 61 -141 60 -62 -60 -58 1647 -58 l1561 0
49 34 c112 78 121 240 19 336 -35 32 -99 52 -193 60 -115 10 -337 66 -352 89
-4 6 -8 8 -8 3 0 -23 -350 182 -350 205 0 6 -3 9 -6 6 -9 -10 -72 49 -179 167
-83 91 -174 252 -212 375 -25 79 -49 200 -40 200 3 0 18 -12 35 -27 125 -116
235 -188 372 -241 65 -26 176 -52 184 -44 3 3 6 1 6 -4 0 -9 26 -11 160 -15
103 -3 276 26 355 59 70 30 235 117 235 124 0 4 5 8 11 8 6 0 16 6 23 13 7 6
25 21 40 32 37 27 126 117 126 128 0 4 4 6 9 2 5 -3 12 3 15 13 4 10 14 27 24
38 21 23 48 65 51 79 1 6 9 14 17 18 8 5 12 12 9 18 -4 5 -1 9 4 9 6 0 11 4
11 10 0 5 13 37 29 70 16 33 28 60 26 60 -2 0 2 15 10 34 13 30 23 69 41 151
6 29 17 144 17 185 0 47 -12 189 -18 220 -4 14 -8 39 -10 55 -7 46 -27 128
-36 146 -4 9 -10 27 -13 40 -2 13 -9 35 -14 49 -5 14 -10 28 -11 32 -1 4 -11
29 -22 55 -39 90 -42 98 -41 106 1 4 -3 7 -10 7 -6 0 -9 3 -6 6 8 7 -111 236
-153 296 -11 14 -19 31 -19 37 0 6 -4 11 -10 11 -5 0 -10 4 -10 9 0 12 -129
206 -159 240 -11 13 -21 27 -21 30 0 3 -10 18 -23 33 -12 14 -30 36 -39 47
-10 12 -18 25 -18 30 0 5 -3 11 -8 13 -4 2 -25 26 -47 53 -22 28 -64 79 -95
115 -30 35 -66 78 -80 94 -35 41 -110 125 -140 156 -14 14 -42 45 -62 67 -20
23 -39 39 -42 35 -3 -3 -6 0 -6 5 0 11 -219 232 -370 373 -84 79 -74 69 -195
176 -49 43 -95 83 -101 89 -6 5 -35 30 -64 55 -30 25 -71 60 -91 78 -20 17
-40 32 -44 32 -4 0 -15 8 -24 18 -17 19 -96 82 -102 82 -2 0 -19 -13 -38 -28z"/>
</g>
</svg>
